<?xml version="1.0" encoding="UTF-8" standalone="no"?>
<!-- Created with Inkscape (http://www.inkscape.org/) -->
<svg
   xmlns:svg="http://www.w3.org/2000/svg"
   xmlns="http://www.w3.org/2000/svg"
   version="1.0"
   width="354.33124"
   height="177.16499"
   id="svg2"
   xml:space="preserve"><defs
     id="defs5"><clipPath
       id="clipPath17"><path
         d="M 0,141.732 L 283.465,141.732 L 283.465,0 L 0,0 L 0,141.732 z"
         id="path19" /></clipPath></defs><g
     transform="matrix(1.25,0,0,-1.25,0,177.165)"
     id="g11"><g
       id="g13"><g
         clip-path="url(#clipPath17)"
         id="g15"><g
           transform="translate(93.8438,54.7393)"
           id="g21"><path
             d="M 0,0 C -15.646,-13.704 -35.056,-17.137 -43.349,-7.666 C -51.643,1.805 -45.679,20.59 -30.031,34.292 C -14.383,47.998 5.026,51.429 13.319,41.959 C 21.613,32.489 15.65,13.704 0,0"
             id="path23"
             style="fill:#ffffff;fill-opacity:1;fill-rule:nonzero;stroke:none" /></g><g
           transform="translate(72.4883,43.9463)"
           id="g25"><path
             d="M 0,0 C -2.779,-0.718 -5.517,-1.104 -8.137,-1.104 C -10.756,-1.104 -13.087,-0.718 -15.109,0 L 0,0 z M 5.857,1.974 C 4.756,1.518 3.652,1.109 2.551,0.749 L -16.873,0.749 C -17.594,1.109 -18.268,1.518 -18.889,1.974 L 5.857,1.974 z M 10.069,3.945 C 9.24,3.512 8.406,3.103 7.569,2.72 L -19.813,2.72 C -20.246,3.103 -20.65,3.512 -21.022,3.945 L 10.069,3.945 z M 13.541,5.916 C 12.85,5.493 12.152,5.084 11.451,4.692 L -21.617,4.692 C -21.906,5.084 -22.172,5.493 -22.416,5.916 L 13.541,5.916 z M -7.057,6.665 L -22.814,6.665 C -23.008,7.061 -23.182,7.47 -23.338,7.89 L -7.063,7.89 C -7.071,7.708 -7.075,7.526 -7.075,7.344 C -7.075,7.116 -7.068,6.891 -7.057,6.665 M 13.48,6.665 L -1.049,6.665 C -1.07,6.889 -1.082,7.115 -1.082,7.343 C -1.082,7.526 -1.075,7.709 -1.062,7.89 L 13.492,7.89 C 13.506,7.709 13.512,7.526 13.512,7.343 C 13.512,7.115 13.502,6.889 13.48,6.665 M -7.012,8.636 L -23.596,8.636 C -23.72,9.035 -23.826,9.444 -23.918,9.861 L -6.834,9.861 C -6.911,9.459 -6.971,9.051 -7.012,8.636 M 13.397,8.636 L -0.967,8.636 C -0.89,9.059 -0.777,9.469 -0.633,9.861 L 13.064,9.861 C 13.209,9.469 13.322,9.059 13.397,8.636 M -6.666,10.609 L -24.065,10.609 C -24.134,11.01 -24.189,11.417 -24.229,11.834 L -6.291,11.834 C -6.436,11.433 -6.561,11.025 -6.666,10.609 M 12.738,10.609 L -0.307,10.609 C -0.087,11.044 0.174,11.453 0.471,11.834 L 11.961,11.834 C 12.259,11.453 12.52,11.044 12.738,10.609 M 21.587,11.834 C 21.109,11.417 20.625,11.01 20.135,10.609 L 19.098,10.609 C 18.992,11.025 18.867,11.433 18.723,11.834 L 21.587,11.834 z M -5.994,12.582 L -24.283,12.582 C -24.305,12.983 -24.314,13.392 -24.311,13.806 L -5.389,13.806 C -5.611,13.409 -5.813,13.001 -5.994,12.582 M 11.285,12.582 L 1.145,12.582 C 1.645,13.065 2.213,13.479 2.834,13.806 L 9.598,13.806 C 10.219,13.479 10.786,13.065 11.285,12.582 M 23.745,13.806 C 23.313,13.392 22.875,12.983 22.43,12.582 L 18.427,12.582 C 18.246,13.002 18.043,13.409 17.821,13.806 L 23.745,13.806 z M -4.938,14.554 L -24.289,14.554 C -24.27,14.957 -24.238,15.364 -24.195,15.778 L -4.04,15.778 C -4.361,15.388 -4.661,14.979 -4.938,14.554 M 7.341,14.554 L 5.092,14.554 C 5.459,14.611 5.834,14.641 6.215,14.641 C 6.598,14.641 6.975,14.611 7.341,14.554 M 25.71,15.778 C 25.317,15.364 24.917,14.957 24.512,14.554 L 17.37,14.554 C 17.094,14.979 16.793,15.388 16.471,15.778 L 25.71,15.778 z M -3.375,16.525 L -24.105,16.525 C -24.051,16.928 -23.982,17.337 -23.904,17.749 L -2.033,17.749 C -2.508,17.372 -2.957,16.962 -3.375,16.525 M 27.495,17.749 C 27.139,17.337 26.776,16.928 26.406,16.525 L 15.807,16.525 C 15.389,16.962 14.939,17.372 14.465,17.749 L 27.495,17.749 z M -0.992,18.498 L -23.752,18.498 C -23.663,18.901 -23.563,19.31 -23.451,19.721 L 1.387,19.721 C 0.551,19.393 -0.246,18.981 -0.992,18.498 M 29.12,19.721 C 28.797,19.31 28.469,18.901 28.131,18.498 L 13.425,18.498 C 12.679,18.981 11.883,19.393 11.045,19.721 L 29.12,19.721 z M 3.59,20.47 L -23.24,20.47 C -23.119,20.875 -22.988,21.283 -22.847,21.694 L 3.59,21.694 L 3.59,20.47 z M 30.594,21.694 C 30.303,21.283 30.002,20.875 29.697,20.47 L 9.139,20.47 L 9.139,21.694 L 30.594,21.694 z M 3.59,22.442 L -22.58,22.442 C -22.43,22.848 -22.269,23.257 -22.098,23.667 L 3.59,23.667 L 3.59,22.442 z M 31.924,23.667 C 31.661,23.257 31.393,22.848 31.115,22.442 L 9.139,22.442 L 9.139,23.667 L 31.924,23.667 z M 3.59,24.415 L -21.777,24.415 C -21.599,24.82 -21.41,25.229 -21.212,25.639 L 3.59,25.639 L 3.59,24.415 z M 33.115,25.639 C 32.882,25.229 32.641,24.82 32.392,24.415 L 9.139,24.415 L 9.139,25.639 L 33.115,25.639 z M 3.59,26.385 L -20.84,26.385 C -20.756,26.549 -20.674,26.713 -20.587,26.877 C -20.459,27.124 -20.325,27.368 -20.191,27.611 L 2.74,27.611 C 3.02,27.535 3.303,27.466 3.59,27.409 L 3.59,26.385 z M 34.174,27.611 C 34.053,27.368 33.928,27.124 33.799,26.877 C 33.711,26.713 33.621,26.549 33.532,26.385 L 9.139,26.385 L 9.139,27.473 C 9.324,27.514 9.508,27.561 9.691,27.611 L 34.174,27.611 z M 0.688,28.358 L -19.768,28.358 C -19.531,28.768 -19.286,29.176 -19.033,29.583 L -1.434,29.583 C -0.769,29.112 -0.059,28.702 0.688,28.358 M 35.095,29.583 C 34.919,29.176 34.734,28.768 34.539,28.358 L 11.746,28.358 C 12.492,28.702 13.201,29.112 13.865,29.583 L 35.095,29.583 z M -2.395,30.331 L -18.561,30.331 C -18.294,30.741 -18.021,31.149 -17.74,31.555 L -3.654,31.555 C -3.262,31.12 -2.84,30.711 -2.395,30.331 M 35.878,31.555 C 35.731,31.149 35.575,30.741 35.408,30.331 L 14.826,30.331 C 15.273,30.71 15.693,31.12 16.085,31.555 L 35.878,31.555 z M 3.874,33.527 L 8.559,33.527 C 7.822,33.276 7.034,33.139 6.215,33.139 C 5.396,33.139 4.609,33.276 3.874,33.527 M -4.279,32.303 L -17.213,32.303 C -16.917,32.714 -16.613,33.122 -16.304,33.527 L -5.127,33.527 C -4.867,33.103 -4.584,32.694 -4.279,32.303 M 36.52,33.527 C 36.403,33.122 36.277,32.714 36.139,32.303 L 16.713,32.303 C 17.018,32.694 17.299,33.103 17.559,33.527 L 36.52,33.527 z M -5.553,34.275 L -15.721,34.275 C -15.393,34.686 -15.06,35.094 -14.719,35.499 L -6.119,35.499 C -5.951,35.081 -5.762,34.671 -5.553,34.275 M 10.117,34.275 L 2.316,34.275 C 1.775,34.618 1.283,35.031 0.852,35.499 L 4.231,35.499 C 4.846,35.25 5.514,35.114 6.215,35.114 C 6.916,35.114 7.587,35.25 8.201,35.499 L 11.58,35.499 C 11.148,35.031 10.657,34.618 10.117,34.275 M 37.014,35.499 C 36.928,35.094 36.832,34.686 36.725,34.275 L 17.984,34.275 C 18.193,34.671 18.383,35.081 18.551,35.499 L 37.014,35.499 z M -6.395,36.247 L -14.076,36.247 C -13.717,36.661 -13.35,37.068 -12.975,37.471 L -6.739,37.471 C -6.644,37.055 -6.528,36.647 -6.395,36.247 M 2.939,36.247 L 0.248,36.247 C -0.021,36.629 -0.256,37.04 -0.449,37.471 L 1.799,37.471 C 2.113,37.006 2.499,36.593 2.939,36.247 M 12.185,36.247 L 9.494,36.247 C 9.936,36.593 10.318,37.006 10.633,37.471 L 12.881,37.471 C 12.688,37.04 12.454,36.629 12.185,36.247 M 37.348,37.471 C 37.297,37.068 37.233,36.661 37.16,36.247 L 18.826,36.247 C 18.96,36.647 19.075,37.056 19.17,37.471 L 37.348,37.471 z M -6.889,38.219 L -12.271,38.219 C -11.873,38.631 -11.47,39.041 -11.06,39.443 L -7.037,39.443 C -7.006,39.03 -6.956,38.622 -6.889,38.219 M 1.379,38.219 L -0.734,38.219 C -0.861,38.614 -0.955,39.022 -1.014,39.443 L 0.986,39.443 C 1.068,39.015 1.201,38.604 1.379,38.219 M 13.166,38.219 L 11.053,38.219 C 11.23,38.604 11.364,39.015 11.445,39.443 L 13.445,39.443 C 13.387,39.022 13.293,38.614 13.166,38.219 M 37.51,39.443 C 37.496,39.041 37.469,38.631 37.432,38.219 L 19.319,38.219 C 19.388,38.621 19.438,39.03 19.469,39.443 L 37.51,39.443 z M -7.072,40.191 L -10.285,40.191 C -9.848,40.606 -9.403,41.014 -8.953,41.415 L -7.038,41.415 C -7.063,41.092 -7.075,40.764 -7.075,40.435 C -7.075,40.354 -7.073,40.272 -7.072,40.191 M 0.898,40.191 L -1.078,40.191 C -1.08,40.272 -1.082,40.354 -1.082,40.436 C -1.082,40.767 -1.059,41.094 -1.015,41.415 L 0.984,41.415 C 0.925,41.098 0.893,40.77 0.893,40.436 C 0.893,40.354 0.896,40.272 0.898,40.191 M 13.508,40.191 L 11.532,40.191 C 11.535,40.272 11.538,40.354 11.538,40.436 C 11.538,40.77 11.507,41.098 11.447,41.415 L 13.446,41.415 C 13.49,41.094 13.512,40.767 13.512,40.436 C 13.512,40.354 13.512,40.272 13.508,40.191 M 37.482,41.415 C 37.509,41.014 37.523,40.606 37.525,40.191 L 19.503,40.191 C 19.504,40.272 19.506,40.354 19.506,40.435 C 19.506,40.764 19.493,41.092 19.469,41.415 L 37.482,41.415 z M 1.182,42.163 L -8.098,42.163 C -7.613,42.58 -7.123,42.987 -6.627,43.387 L 1.789,43.387 C 1.537,43.01 1.332,42.6 1.182,42.163 M 37.233,43.387 C 37.309,42.987 37.369,42.58 37.414,42.163 L 11.252,42.163 C 11.101,42.6 10.895,43.01 10.643,43.387 L 37.233,43.387 z M 2.395,44.135 L -5.684,44.135 C -5.143,44.553 -4.596,44.961 -4.043,45.36 L 4.195,45.36 C 3.514,45.078 2.9,44.658 2.395,44.135 M 36.729,45.36 C 36.861,44.961 36.978,44.553 37.078,44.135 L 10.037,44.135 C 9.531,44.658 8.92,45.078 8.237,45.36 L 36.729,45.36 z M 35.904,47.333 C 36.107,46.936 36.293,46.528 36.459,46.108 L -2.986,46.108 C -2.376,46.528 -1.76,46.936 -1.14,47.333 L 35.904,47.333 z M 34.652,49.304 C 34.954,48.914 35.232,48.504 35.488,48.08 L 0.063,48.08 C 0.768,48.504 1.477,48.914 2.189,49.304 L 34.652,49.304 z M 32.747,51.276 C 33.204,50.895 33.633,50.487 34.025,50.051 L 3.604,50.051 C 4.455,50.487 5.313,50.895 6.172,51.276 L 32.747,51.276 z M 29.582,53.249 C 30.363,52.893 31.09,52.485 31.76,52.024 L 7.947,52.024 C 9.104,52.485 10.262,52.893 11.416,53.249 L 29.582,53.249 z M 21.349,54.86 C 23.66,54.86 25.748,54.56 27.596,53.997 L 14.19,53.997 C 16.633,54.56 19.036,54.86 21.349,54.86"
             id="path27"
             style="fill:#437d7b;fill-opacity:1;fill-rule:evenodd;stroke:none" /></g><g
           transform="translate(72.4883,43.9463)"
           id="g29"><path
             d="M 0,0 C -2.779,-0.718 -5.517,-1.104 -8.137,-1.104 C -10.756,-1.104 -13.087,-0.718 -15.109,0 L 0,0 z M 5.857,1.974 C 4.756,1.518 3.652,1.109 2.551,0.749 L -16.873,0.749 C -17.594,1.109 -18.268,1.518 -18.889,1.974 L 5.857,1.974 z M 10.069,3.945 C 9.24,3.512 8.406,3.103 7.569,2.72 L -19.813,2.72 C -20.246,3.103 -20.65,3.512 -21.022,3.945 L 10.069,3.945 z M 13.541,5.916 C 12.85,5.493 12.152,5.084 11.451,4.692 L -21.617,4.692 C -21.906,5.084 -22.172,5.493 -22.416,5.916 L 13.541,5.916 z M -7.057,6.665 L -22.814,6.665 C -23.008,7.061 -23.182,7.47 -23.338,7.89 L -7.063,7.89 C -7.071,7.708 -7.075,7.526 -7.075,7.344 C -7.075,7.116 -7.068,6.891 -7.057,6.665 z M 13.48,6.665 L -1.049,6.665 C -1.07,6.889 -1.082,7.115 -1.082,7.343 C -1.082,7.526 -1.075,7.709 -1.062,7.89 L 13.492,7.89 C 13.506,7.709 13.512,7.526 13.512,7.343 C 13.512,7.115 13.502,6.889 13.48,6.665 z M -7.012,8.636 L -23.596,8.636 C -23.72,9.035 -23.826,9.444 -23.918,9.861 L -6.834,9.861 C -6.911,9.459 -6.971,9.051 -7.012,8.636 z M 13.397,8.636 L -0.967,8.636 C -0.89,9.059 -0.777,9.469 -0.633,9.861 L 13.064,9.861 C 13.209,9.469 13.322,9.059 13.397,8.636 z M -6.666,10.609 L -24.065,10.609 C -24.134,11.01 -24.189,11.417 -24.229,11.834 L -6.291,11.834 C -6.436,11.433 -6.561,11.025 -6.666,10.609 z M 12.738,10.609 L -0.307,10.609 C -0.087,11.044 0.174,11.453 0.471,11.834 L 11.961,11.834 C 12.259,11.453 12.52,11.044 12.738,10.609 z M 21.587,11.834 C 21.109,11.417 20.625,11.01 20.135,10.609 L 19.098,10.609 C 18.992,11.025 18.867,11.433 18.723,11.834 L 21.587,11.834 z M -5.994,12.582 L -24.283,12.582 C -24.305,12.983 -24.314,13.392 -24.311,13.806 L -5.389,13.806 C -5.611,13.409 -5.813,13.001 -5.994,12.582 z M 11.285,12.582 L 1.145,12.582 C 1.645,13.065 2.213,13.479 2.834,13.806 L 9.598,13.806 C 10.219,13.479 10.786,13.065 11.285,12.582 z M 23.745,13.806 C 23.313,13.392 22.875,12.983 22.43,12.582 L 18.427,12.582 C 18.246,13.002 18.043,13.409 17.821,13.806 L 23.745,13.806 z M -4.938,14.554 L -24.289,14.554 C -24.27,14.957 -24.238,15.364 -24.195,15.778 L -4.04,15.778 C -4.361,15.388 -4.661,14.979 -4.938,14.554 z M 7.341,14.554 L 5.092,14.554 C 5.459,14.611 5.834,14.641 6.215,14.641 C 6.598,14.641 6.975,14.611 7.341,14.554 z M 25.71,15.778 C 25.317,15.364 24.917,14.957 24.512,14.554 L 17.37,14.554 C 17.094,14.979 16.793,15.388 16.471,15.778 L 25.71,15.778 z M -3.375,16.525 L -24.105,16.525 C -24.051,16.928 -23.982,17.337 -23.904,17.749 L -2.033,17.749 C -2.508,17.372 -2.957,16.962 -3.375,16.525 z M 27.495,17.749 C 27.139,17.337 26.776,16.928 26.406,16.525 L 15.807,16.525 C 15.389,16.962 14.939,17.372 14.465,17.749 L 27.495,17.749 z M -0.992,18.498 L -23.752,18.498 C -23.663,18.901 -23.563,19.31 -23.451,19.721 L 1.387,19.721 C 0.551,19.393 -0.246,18.981 -0.992,18.498 z M 29.12,19.721 C 28.797,19.31 28.469,18.901 28.131,18.498 L 13.425,18.498 C 12.679,18.981 11.883,19.393 11.045,19.721 L 29.12,19.721 z M 3.59,20.47 L -23.24,20.47 C -23.119,20.875 -22.988,21.283 -22.847,21.694 L 3.59,21.694 L 3.59,20.47 z M 30.594,21.694 C 30.303,21.283 30.002,20.875 29.697,20.47 L 9.139,20.47 L 9.139,21.694 L 30.594,21.694 z M 3.59,22.442 L -22.58,22.442 C -22.43,22.848 -22.269,23.257 -22.098,23.667 L 3.59,23.667 L 3.59,22.442 z M 31.924,23.667 C 31.661,23.257 31.393,22.848 31.115,22.442 L 9.139,22.442 L 9.139,23.667 L 31.924,23.667 z M 3.59,24.415 L -21.777,24.415 C -21.599,24.82 -21.41,25.229 -21.212,25.639 L 3.59,25.639 L 3.59,24.415 z M 33.115,25.639 C 32.882,25.229 32.641,24.82 32.392,24.415 L 9.139,24.415 L 9.139,25.639 L 33.115,25.639 z M 3.59,26.385 L -20.84,26.385 C -20.756,26.549 -20.674,26.713 -20.587,26.877 C -20.459,27.124 -20.325,27.368 -20.191,27.611 L 2.74,27.611 C 3.02,27.535 3.303,27.466 3.59,27.409 L 3.59,26.385 z M 34.174,27.611 C 34.053,27.368 33.928,27.124 33.799,26.877 C 33.711,26.713 33.621,26.549 33.532,26.385 L 9.139,26.385 L 9.139,27.473 C 9.324,27.514 9.508,27.561 9.691,27.611 L 34.174,27.611 z M 0.688,28.358 L -19.768,28.358 C -19.531,28.768 -19.286,29.176 -19.033,29.583 L -1.434,29.583 C -0.769,29.112 -0.059,28.702 0.688,28.358 z M 35.095,29.583 C 34.919,29.176 34.734,28.768 34.539,28.358 L 11.746,28.358 C 12.492,28.702 13.201,29.112 13.865,29.583 L 35.095,29.583 z M -2.395,30.331 L -18.561,30.331 C -18.294,30.741 -18.021,31.149 -17.74,31.555 L -3.654,31.555 C -3.262,31.12 -2.84,30.711 -2.395,30.331 z M 35.878,31.555 C 35.731,31.149 35.575,30.741 35.408,30.331 L 14.826,30.331 C 15.273,30.71 15.693,31.12 16.085,31.555 L 35.878,31.555 z M 3.874,33.527 L 8.559,33.527 C 7.822,33.276 7.034,33.139 6.215,33.139 C 5.396,33.139 4.609,33.276 3.874,33.527 z M -4.279,32.303 L -17.213,32.303 C -16.917,32.714 -16.613,33.122 -16.304,33.527 L -5.127,33.527 C -4.867,33.103 -4.584,32.694 -4.279,32.303 z M 36.52,33.527 C 36.403,33.122 36.277,32.714 36.139,32.303 L 16.713,32.303 C 17.018,32.694 17.299,33.103 17.559,33.527 L 36.52,33.527 z M -5.553,34.275 L -15.721,34.275 C -15.393,34.686 -15.06,35.094 -14.719,35.499 L -6.119,35.499 C -5.951,35.081 -5.762,34.671 -5.553,34.275 z M 10.117,34.275 L 2.316,34.275 C 1.775,34.618 1.283,35.031 0.852,35.499 L 4.231,35.499 C 4.846,35.25 5.514,35.114 6.215,35.114 C 6.916,35.114 7.587,35.25 8.201,35.499 L 11.58,35.499 C 11.148,35.031 10.657,34.618 10.117,34.275 z M 37.014,35.499 C 36.928,35.094 36.832,34.686 36.725,34.275 L 17.984,34.275 C 18.193,34.671 18.383,35.081 18.551,35.499 L 37.014,35.499 z M -6.395,36.247 L -14.076,36.247 C -13.717,36.661 -13.35,37.068 -12.975,37.471 L -6.739,37.471 C -6.644,37.055 -6.528,36.647 -6.395,36.247 z M 2.939,36.247 L 0.248,36.247 C -0.021,36.629 -0.256,37.04 -0.449,37.471 L 1.799,37.471 C 2.113,37.006 2.499,36.593 2.939,36.247 z M 12.185,36.247 L 9.494,36.247 C 9.936,36.593 10.318,37.006 10.633,37.471 L 12.881,37.471 C 12.688,37.04 12.454,36.629 12.185,36.247 z M 37.348,37.471 C 37.297,37.068 37.233,36.661 37.16,36.247 L 18.826,36.247 C 18.96,36.647 19.075,37.056 19.17,37.471 L 37.348,37.471 z M -6.889,38.219 L -12.271,38.219 C -11.873,38.631 -11.47,39.041 -11.06,39.443 L -7.037,39.443 C -7.006,39.03 -6.956,38.622 -6.889,38.219 z M 1.379,38.219 L -0.734,38.219 C -0.861,38.614 -0.955,39.022 -1.014,39.443 L 0.986,39.443 C 1.068,39.015 1.201,38.604 1.379,38.219 z M 13.166,38.219 L 11.053,38.219 C 11.23,38.604 11.364,39.015 11.445,39.443 L 13.445,39.443 C 13.387,39.022 13.293,38.614 13.166,38.219 z M 37.51,39.443 C 37.496,39.041 37.469,38.631 37.432,38.219 L 19.319,38.219 C 19.388,38.621 19.438,39.03 19.469,39.443 L 37.51,39.443 z M -7.072,40.191 L -10.285,40.191 C -9.848,40.606 -9.403,41.014 -8.953,41.415 L -7.038,41.415 C -7.063,41.092 -7.075,40.764 -7.075,40.435 C -7.075,40.354 -7.073,40.272 -7.072,40.191 z M 0.898,40.191 L -1.078,40.191 C -1.08,40.272 -1.082,40.354 -1.082,40.436 C -1.082,40.767 -1.059,41.094 -1.015,41.415 L 0.984,41.415 C 0.925,41.098 0.893,40.77 0.893,40.436 C 0.893,40.354 0.896,40.272 0.898,40.191 z M 13.508,40.191 L 11.532,40.191 C 11.535,40.272 11.538,40.354 11.538,40.436 C 11.538,40.77 11.507,41.098 11.447,41.415 L 13.446,41.415 C 13.49,41.094 13.512,40.767 13.512,40.436 C 13.512,40.354 13.512,40.272 13.508,40.191 z M 37.482,41.415 C 37.509,41.014 37.523,40.606 37.525,40.191 L 19.503,40.191 C 19.504,40.272 19.506,40.354 19.506,40.435 C 19.506,40.764 19.493,41.092 19.469,41.415 L 37.482,41.415 z M 1.182,42.163 L -8.098,42.163 C -7.613,42.58 -7.123,42.987 -6.627,43.387 L 1.789,43.387 C 1.537,43.01 1.332,42.6 1.182,42.163 z M 37.233,43.387 C 37.309,42.987 37.369,42.58 37.414,42.163 L 11.252,42.163 C 11.101,42.6 10.895,43.01 10.643,43.387 L 37.233,43.387 z M 2.395,44.135 L -5.684,44.135 C -5.143,44.553 -4.596,44.961 -4.043,45.36 L 4.195,45.36 C 3.514,45.078 2.9,44.658 2.395,44.135 z M 36.729,45.36 C 36.861,44.961 36.978,44.553 37.078,44.135 L 10.037,44.135 C 9.531,44.658 8.92,45.078 8.237,45.36 L 36.729,45.36 z M 35.904,47.333 C 36.107,46.936 36.293,46.528 36.459,46.108 L -2.986,46.108 C -2.376,46.528 -1.76,46.936 -1.14,47.333 L 35.904,47.333 z M 34.652,49.304 C 34.954,48.914 35.232,48.504 35.488,48.08 L 0.063,48.08 C 0.768,48.504 1.477,48.914 2.189,49.304 L 34.652,49.304 z M 32.747,51.276 C 33.204,50.895 33.633,50.487 34.025,50.051 L 3.604,50.051 C 4.455,50.487 5.313,50.895 6.172,51.276 L 32.747,51.276 z M 29.582,53.249 C 30.363,52.893 31.09,52.485 31.76,52.024 L 7.947,52.024 C 9.104,52.485 10.262,52.893 11.416,53.249 L 29.582,53.249 z M 21.349,54.86 C 23.66,54.86 25.748,54.56 27.596,53.997 L 14.19,53.997 C 16.633,54.56 19.036,54.86 21.349,54.86 z"
             id="path31"
             style="fill:none;stroke:#ffffff;stroke-width:0.085;stroke-linecap:butt;stroke-linejoin:miter;stroke-miterlimit:2.61299992;stroke-dasharray:none;stroke-opacity:1" /></g><g
           transform="translate(135.041,65.8311)"
           id="g33"><path
             d="M 0,0 C 0,1.903 0.35,3.282 1.052,4.137 C 1.753,4.991 2.953,5.418 4.65,5.418 C 6.367,5.418 7.585,4.972 8.304,4.079 C 8.97,3.263 9.302,1.903 9.302,0 L 9.302,-11.072 C 9.302,-12.976 8.97,-14.346 8.304,-15.181 C 7.585,-16.056 6.367,-16.491 4.65,-16.491 C 2.935,-16.491 1.73,-16.065 1.038,-15.209 C 0.346,-14.354 0,-12.976 0,-11.072 L 0,0 z M 3.986,1.398 L 3.986,-12.296 C 3.986,-12.976 4.208,-13.316 4.65,-13.316 C 5.113,-13.316 5.343,-12.976 5.343,-12.296 L 5.343,1.398 C 5.343,2.079 5.113,2.419 4.65,2.419 C 4.208,2.419 3.986,2.079 3.986,1.398 M -4.905,-2.244 L -4.905,1.106 C -4.905,1.554 -4.988,1.864 -5.154,2.04 C -5.32,2.214 -5.681,2.302 -6.234,2.302 L -6.234,-3.438 L -6.014,-3.438 C -5.274,-3.438 -4.905,-3.041 -4.905,-2.244 M -10.222,-16.026 L -10.222,4.952 L -5.57,4.952 C -3.945,4.952 -2.77,4.651 -2.039,4.049 C -1.311,3.448 -0.947,2.485 -0.947,1.165 L -0.947,-1.049 C -0.947,-3.264 -1.971,-4.429 -4.02,-4.546 L -4.02,-4.663 C -2.875,-4.74 -2.076,-5.041 -1.625,-5.565 C -1.172,-6.09 -0.947,-6.964 -0.947,-8.188 L -0.947,-13.52 C -0.947,-14.394 -0.826,-15.229 -0.586,-16.026 L -4.518,-16.026 C -4.776,-15.307 -4.905,-14.433 -4.905,-13.404 L -4.905,-8.071 C -4.905,-6.887 -5.349,-6.294 -6.234,-6.294 L -6.234,-16.026 L -10.222,-16.026 z M -11.467,4.952 L -11.467,-11.102 C -11.467,-13.005 -11.8,-14.364 -12.464,-15.181 C -13.184,-16.056 -14.402,-16.491 -16.119,-16.491 C -17.835,-16.491 -19.053,-16.056 -19.773,-15.181 C -20.438,-14.364 -20.77,-13.005 -20.77,-11.102 L -20.77,4.952 L -16.811,4.952 L -16.811,-12.296 C -16.811,-12.976 -16.58,-13.316 -16.119,-13.316 C -15.676,-13.316 -15.453,-12.976 -15.453,-12.296 L -15.453,4.952 L -11.467,4.952 z M -29.242,-16.026 L -29.242,4.952 L -21.822,4.952 L -21.822,2.04 L -25.255,2.04 L -25.255,-2.798 L -21.904,-2.798 L -21.904,-5.828 L -25.255,-5.828 L -25.255,-12.85 L -21.822,-12.85 L -21.822,-16.026 L -29.242,-16.026 z M -41.004,-16.026 L -41.004,4.952 L -35.549,4.952 L -34.137,-3.934 C -33.879,-5.526 -33.695,-7.548 -33.584,-9.994 L -33.418,-9.994 C -33.547,-6.905 -33.611,-4.818 -33.611,-3.729 L -33.611,4.952 L -30.511,4.952 L -30.511,-16.026 L -35.189,-16.026 L -37.238,-4.635 C -37.386,-3.798 -37.607,-2.138 -37.902,0.35 L -38.014,0.35 C -37.902,-1.399 -37.848,-2.701 -37.848,-3.555 L -37.848,-16.026 L -41.004,-16.026 z"
             id="path35"
             style="fill:#231f20;fill-opacity:1;fill-rule:nonzero;stroke:none" /></g><g
           transform="translate(68.1699,81.2554)"
           id="g37"><path
             d="M 0,0 C -0.563,-0.431 -0.895,-1.387 -0.422,-2.039 C 0.85,-3.799 2.607,-5.274 4.227,-6.803 C 5.253,-7.771 6.551,-8.094 8.132,-8.234 C 8.588,-8.275 8.91,-8.305 9.371,-8.408 C 9.289,-9.688 9.562,-11.782 9.717,-12.788 C 9.988,-14.571 10.204,-16.326 10.102,-18.046 C 7.619,-18.783 6.037,-19.709 5.068,-20.436 C 4.084,-21.174 1.656,-23.531 1.213,-24.303 C 0.213,-26.049 -1.73,-27.962 0.106,-29.338 C 1.397,-30.305 1.553,-29.264 1.777,-28.038 C 1.912,-27.301 2.195,-26.5 2.426,-26.022 C 3.42,-23.972 5.316,-21.881 7.617,-20.833 C 8.889,-20.253 10.279,-19.902 11.619,-19.902 C 12.629,-19.902 13.613,-20.101 14.494,-20.549 C 16.324,-21.48 18.461,-25.354 19.025,-27.209 C 19.317,-28.17 19.358,-29.521 19.481,-30.569 C 20.911,-30.785 21.787,-31.487 22.811,-31.745 C 24.578,-32.19 23.909,-29.592 23.705,-28.807 C 22.951,-25.913 21.846,-24.437 20.085,-22.5 C 18.652,-20.925 17.595,-20.262 16.021,-19.379 C 15.38,-19.021 13.385,-18.108 12.592,-18.108 C 12.447,-16.931 12.397,-15.06 12.359,-14.908 C 11.93,-13.163 11.498,-10.648 11.979,-9.107 C 12.041,-8.904 12.531,-8.712 12.748,-8.632 C 14.201,-8.098 16.864,-7.148 18.342,-5.668 C 19.231,-4.775 19.873,-4.35 20.627,-3.419 C 20.887,-3.097 21.236,-2.26 21.453,-1.898 C 21.622,-1.619 22.196,-1.32 22.332,-1.01 C 22.821,0.117 23.05,1.539 21.754,1.59 C 20.119,1.655 20.139,0.877 20.035,-0.607 C 19.855,-3.195 18.431,-4.07 16.078,-5.48 C 15.219,-5.994 13.027,-7.645 12.082,-7.593 C 11.864,-7.581 11.908,-7.33 11.828,-7.123 C 11.755,-6.936 11.01,-6.938 10.242,-7.049 C 9.934,-7.092 9.876,-7.348 9.693,-7.367 C 9.143,-7.424 8.544,-7.24 8.371,-7.228 C 7.366,-7.16 5.728,-6.864 4.807,-5.982 C 3.758,-4.979 3.141,-3.954 2.321,-3.09 C 1.488,-2.213 1.895,-1.652 1.434,-0.909 C 0.879,-0.012 0.555,0.425 0,0 M 11.191,1.263 C 10.267,0.975 9.797,0.766 9.094,0.111 C 8.15,-0.762 7.803,-2.242 8.311,-3.574 C 8.88,-5.065 12.092,-5.381 13.525,-5.301 C 16.315,-5.145 15.982,-2.737 15.247,-1.064 C 14.287,1.117 13.488,1.716 11.191,1.263"
             id="path39"
             style="fill:#231f20;fill-opacity:1;fill-rule:evenodd;stroke:none" /></g><g
           transform="translate(134.1406,66.5049)"
           id="g41"><path
             d="M 0,0 C 0,1.904 0.352,3.284 1.053,4.137 C 1.754,4.993 2.953,5.42 4.651,5.42 C 6.367,5.42 7.585,4.973 8.306,4.08 C 8.97,3.264 9.302,1.904 9.302,0 L 9.302,-11.072 C 9.302,-12.975 8.97,-14.344 8.306,-15.179 C 7.585,-16.054 6.367,-16.49 4.651,-16.49 C 2.936,-16.49 1.73,-16.063 1.039,-15.208 C 0.346,-14.354 0,-12.975 0,-11.072 L 0,0 z M 3.986,1.399 L 3.986,-12.295 C 3.986,-12.975 4.209,-13.314 4.651,-13.314 C 5.113,-13.314 5.344,-12.975 5.344,-12.295 L 5.344,1.399 C 5.344,2.079 5.113,2.419 4.651,2.419 C 4.209,2.419 3.986,2.079 3.986,1.399 M -4.904,-2.242 L -4.904,1.108 C -4.904,1.556 -4.988,1.866 -5.154,2.04 C -5.32,2.216 -5.68,2.303 -6.234,2.303 L -6.234,-3.438 L -6.013,-3.438 C -5.273,-3.438 -4.904,-3.039 -4.904,-2.242 M -10.221,-16.024 L -10.221,4.954 L -5.57,4.954 C -3.945,4.954 -2.768,4.653 -2.039,4.051 C -1.311,3.448 -0.946,2.487 -0.946,1.167 L -0.946,-1.048 C -0.946,-3.263 -1.971,-4.428 -4.02,-4.545 L -4.02,-4.661 C -2.875,-4.738 -2.076,-5.04 -1.624,-5.565 C -1.172,-6.089 -0.946,-6.963 -0.946,-8.188 L -0.946,-13.519 C -0.946,-14.393 -0.826,-15.228 -0.586,-16.024 L -4.518,-16.024 C -4.775,-15.306 -4.904,-14.432 -4.904,-13.402 L -4.904,-8.069 C -4.904,-6.885 -5.348,-6.293 -6.234,-6.293 L -6.234,-16.024 L -10.221,-16.024 z M -11.467,4.954 L -11.467,-11.101 C -11.467,-13.004 -11.799,-14.363 -12.463,-15.179 C -13.184,-16.054 -14.401,-16.49 -16.118,-16.49 C -17.834,-16.49 -19.053,-16.054 -19.773,-15.179 C -20.438,-14.363 -20.77,-13.004 -20.77,-11.101 L -20.77,4.954 L -16.811,4.954 L -16.811,-12.295 C -16.811,-12.975 -16.579,-13.314 -16.118,-13.314 C -15.676,-13.314 -15.453,-12.975 -15.453,-12.295 L -15.453,4.954 L -11.467,4.954 z M -29.241,-16.024 L -29.241,4.954 L -21.821,4.954 L -21.821,2.04 L -25.254,2.04 L -25.254,-2.797 L -21.904,-2.797 L -21.904,-5.827 L -25.254,-5.827 L -25.254,-12.849 L -21.821,-12.849 L -21.821,-16.024 L -29.241,-16.024 z M -41.004,-16.024 L -41.004,4.954 L -35.549,4.954 L -34.137,-3.933 C -33.879,-5.526 -33.693,-7.546 -33.584,-9.993 L -33.417,-9.993 C -33.547,-6.904 -33.611,-4.816 -33.611,-3.729 L -33.611,4.954 L -30.51,4.954 L -30.51,-16.024 L -35.189,-16.024 L -37.238,-4.632 C -37.386,-3.797 -37.607,-2.136 -37.902,0.35 L -38.014,0.35 C -37.902,-1.397 -37.848,-2.7 -37.848,-3.554 L -37.848,-16.024 L -41.004,-16.024 z"
             id="path43"
             style="fill:#d3d3d3;fill-opacity:1;fill-rule:nonzero;stroke:none" /></g><g
           transform="translate(150.3848,49.8672)"
           id="g45"><path
             d="M 0,0 L -1.528,0 C -2.387,0 -2.964,0.106 -3.262,0.316 C -3.559,0.526 -3.707,1.022 -3.707,1.806 L -3.707,12.869 L -4.485,12.869 L -4.485,14.888 L -3.707,14.888 L -3.707,17.726 L -0.92,17.726 L -0.92,14.888 L 0,14.888 L 0,12.869 L -0.92,12.869 L -0.92,2.662 C -0.92,2.437 -0.88,2.272 -0.8,2.171 C -0.72,2.069 -0.585,2.02 -0.396,2.02 L 0,2.02 L 0,0 z"
             id="path47"
             style="fill:#231f20;fill-opacity:1;fill-rule:nonzero;stroke:none" /></g><g
           transform="translate(154.7705,58.7246)"
           id="g49"><path
             d="M 0,0 L 0,3.646 C 0,3.94 -0.05,4.152 -0.148,4.283 C -0.248,4.413 -0.41,4.479 -0.637,4.479 C -0.863,4.479 -1.025,4.415 -1.125,4.289 C -1.224,4.163 -1.273,3.948 -1.273,3.646 L -1.273,0 L 0,0 z M -1.273,-6.46 C -1.273,-6.754 -1.224,-6.968 -1.125,-7.103 C -1.025,-7.237 -0.863,-7.305 -0.637,-7.305 C -0.42,-7.305 -0.26,-7.239 -0.156,-7.109 C -0.052,-6.979 0,-6.763 0,-6.46 L 0,-2.965 L 2.801,-2.965 L 2.801,-6.221 C 2.801,-7.179 2.514,-7.896 1.938,-8.37 C 1.362,-8.848 0.504,-9.084 -0.637,-9.084 C -1.788,-9.084 -2.65,-8.848 -3.226,-8.37 C -3.802,-7.896 -4.089,-7.179 -4.089,-6.221 L -4.089,3.394 C -4.089,4.353 -3.802,5.072 -3.226,5.558 C -2.65,6.04 -1.788,6.282 -0.637,6.282 C 0.504,6.282 1.362,6.04 1.938,5.558 C 2.514,5.072 2.801,4.353 2.801,3.394 L 2.801,-1.778 L -1.273,-1.778 L -1.273,-6.46 z"
             id="path51"
             style="fill:#231f20;fill-opacity:1;fill-rule:nonzero;stroke:none" /></g><g
           transform="translate(165.6211,52.5039)"
           id="g53"><path
             d="M 0,0 C 0,-0.958 -0.287,-1.675 -0.862,-2.149 C -1.438,-2.627 -2.297,-2.863 -3.438,-2.863 C -4.589,-2.863 -5.451,-2.627 -6.026,-2.149 C -6.603,-1.675 -6.89,-0.958 -6.89,0 L -6.89,9.614 C -6.89,10.573 -6.603,11.293 -6.026,11.778 C -5.451,12.261 -4.589,12.503 -3.438,12.503 C -2.297,12.503 -1.438,12.261 -0.862,11.778 C -0.287,11.293 0,10.573 0,9.614 L 0,6.852 L -2.801,6.852 L -2.801,9.866 C -2.801,10.161 -2.851,10.373 -2.949,10.504 C -3.049,10.634 -3.211,10.699 -3.438,10.699 C -3.664,10.699 -3.826,10.636 -3.926,10.51 C -4.024,10.384 -4.074,10.169 -4.074,9.866 L -4.074,-0.239 C -4.074,-0.533 -4.024,-0.747 -3.926,-0.882 C -3.826,-1.017 -3.664,-1.084 -3.438,-1.084 C -3.221,-1.084 -3.061,-1.019 -2.957,-0.889 C -2.853,-0.759 -2.801,-0.542 -2.801,-0.239 L -2.801,3.256 L 0,3.256 L 0,0 z"
             id="path55"
             style="fill:#231f20;fill-opacity:1;fill-rule:nonzero;stroke:none" /></g><g
           transform="translate(166.8389,49.8672)"
           id="g57"><path
             d="M 0,0 L 0,18.609 L 2.787,18.609 L 2.787,13.753 L 2.844,13.753 C 3.032,14.198 3.292,14.528 3.622,14.743 C 3.952,14.957 4.357,15.064 4.839,15.064 C 5.556,15.064 6.063,14.877 6.359,14.503 C 6.656,14.127 6.805,13.445 6.805,12.452 L 6.805,0 L 4.061,0 L 4.061,12.149 C 4.061,12.452 4.009,12.669 3.904,12.8 C 3.801,12.931 3.641,12.995 3.424,12.995 C 3.197,12.995 3.034,12.928 2.936,12.794 C 2.837,12.659 2.787,12.444 2.787,12.149 L 2.787,0 L 0,0 z"
             id="path59"
             style="fill:#231f20;fill-opacity:1;fill-rule:nonzero;stroke:none" /></g><g
           transform="translate(174.8887,49.8672)"
           id="g61"><path
             d="M 0,0 L 0,14.888 L 2.73,14.888 L 2.73,13.753 L 2.787,13.753 C 3.014,14.206 3.294,14.538 3.629,14.749 C 3.964,14.959 4.367,15.064 4.839,15.064 C 5.556,15.064 6.063,14.877 6.359,14.503 C 6.656,14.127 6.805,13.445 6.805,12.452 L 6.805,0 L 4.061,0 L 4.061,12.149 C 4.061,12.452 4.009,12.669 3.904,12.8 C 3.801,12.931 3.641,12.995 3.424,12.995 C 3.197,12.995 3.034,12.928 2.936,12.794 C 2.837,12.659 2.787,12.444 2.787,12.149 L 2.787,0 L 0,0 z"
             id="path63"
             style="fill:#231f20;fill-opacity:1;fill-rule:nonzero;stroke:none" /></g><g
           transform="translate(185.6973,62.3701)"
           id="g65"><path
             d="M 0,0 L 0,-10.105 C 0,-10.399 0.05,-10.613 0.148,-10.748 C 0.248,-10.883 0.41,-10.95 0.637,-10.95 C 0.854,-10.95 1.014,-10.885 1.117,-10.755 C 1.222,-10.625 1.273,-10.408 1.273,-10.105 L 1.273,0 C 1.273,0.295 1.224,0.507 1.125,0.638 C 1.025,0.768 0.863,0.833 0.637,0.833 C 0.41,0.833 0.248,0.77 0.148,0.644 C 0.05,0.518 0,0.303 0,0 M -2.815,-0.252 C -2.815,0.707 -2.528,1.427 -1.952,1.912 C -1.377,2.395 -0.515,2.637 0.637,2.637 C 1.777,2.637 2.636,2.395 3.212,1.912 C 3.787,1.427 4.074,0.707 4.074,-0.252 L 4.074,-9.866 C 4.074,-10.824 3.787,-11.541 3.212,-12.016 C 2.636,-12.493 1.777,-12.729 0.637,-12.729 C -0.515,-12.729 -1.377,-12.493 -1.952,-12.016 C -2.528,-11.541 -2.815,-10.824 -2.815,-9.866 L -2.815,-0.252 z"
             id="path67"
             style="fill:#231f20;fill-opacity:1;fill-rule:nonzero;stroke:none" /></g><path
           d="M 190.989,68.477 L 193.776,68.477 L 193.776,49.868 L 190.989,49.868 L 190.989,68.477 z"
           id="path69"
           style="fill:#231f20;fill-opacity:1;fill-rule:nonzero;stroke:none" /><g
           transform="translate(197.8076,62.3701)"
           id="g71"><path
             d="M 0,0 L 0,-10.105 C 0,-10.399 0.05,-10.613 0.148,-10.748 C 0.248,-10.883 0.41,-10.95 0.637,-10.95 C 0.854,-10.95 1.014,-10.885 1.117,-10.755 C 1.222,-10.625 1.273,-10.408 1.273,-10.105 L 1.273,0 C 1.273,0.295 1.224,0.507 1.125,0.638 C 1.025,0.768 0.863,0.833 0.637,0.833 C 0.41,0.833 0.248,0.77 0.148,0.644 C 0.05,0.518 0,0.303 0,0 M -2.815,-0.252 C -2.815,0.707 -2.528,1.427 -1.952,1.912 C -1.377,2.395 -0.515,2.637 0.637,2.637 C 1.777,2.637 2.636,2.395 3.212,1.912 C 3.787,1.427 4.074,0.707 4.074,-0.252 L 4.074,-9.866 C 4.074,-10.824 3.787,-11.541 3.212,-12.016 C 2.636,-12.493 1.777,-12.729 0.637,-12.729 C -0.515,-12.729 -1.377,-12.493 -1.952,-12.016 C -2.528,-11.541 -2.815,-10.824 -2.815,-9.866 L -2.815,-0.252 z"
             id="path73"
             style="fill:#231f20;fill-opacity:1;fill-rule:nonzero;stroke:none" /></g><g
           transform="translate(207.1602,54.624)"
           id="g75"><path
             d="M 0,0 L 0,7.393 C 0,7.688 -0.052,7.902 -0.156,8.037 C -0.26,8.171 -0.42,8.238 -0.637,8.238 C -0.863,8.238 -1.026,8.174 -1.125,8.043 C -1.224,7.912 -1.273,7.695 -1.273,7.393 L -1.273,0 C -1.273,-0.303 -1.224,-0.518 -1.125,-0.643 C -1.026,-0.77 -0.863,-0.832 -0.637,-0.832 C -0.41,-0.832 -0.248,-0.768 -0.148,-0.637 C -0.05,-0.506 0,-0.294 0,0 M 2.744,-5.223 C 2.744,-6.173 2.457,-6.893 1.882,-7.38 C 1.306,-7.868 0.457,-8.111 -0.665,-8.111 C -1.788,-8.111 -2.634,-7.868 -3.205,-7.38 C -3.775,-6.893 -4.061,-6.173 -4.061,-5.223 L -4.061,-3.671 L -1.273,-3.671 L -1.273,-5.324 C -1.273,-5.627 -1.224,-5.841 -1.125,-5.967 C -1.026,-6.094 -0.863,-6.156 -0.637,-6.156 C -0.41,-6.156 -0.248,-6.091 -0.148,-5.961 C -0.05,-5.83 0,-5.617 0,-5.324 L 0,-1.867 L -0.085,-1.867 C -0.283,-2.271 -0.552,-2.582 -0.892,-2.801 C -1.231,-3.02 -1.622,-3.129 -2.065,-3.129 C -2.782,-3.129 -3.294,-2.929 -3.601,-2.529 C -3.907,-2.131 -4.061,-1.417 -4.061,-0.391 L -4.061,7.695 C -4.061,8.688 -3.91,9.37 -3.607,9.746 C -3.306,10.12 -2.802,10.308 -2.094,10.308 C -1.604,10.308 -1.184,10.195 -0.835,9.973 C -0.486,9.75 -0.217,9.423 -0.028,8.996 L 0.028,8.996 L 0.028,10.131 L 2.744,10.131 L 2.744,-5.223 z"
             id="path77"
             style="fill:#231f20;fill-opacity:1;fill-rule:nonzero;stroke:none" /></g><g
           transform="translate(211.0645,48.5811)"
           id="g79"><path
             d="M 0,0 L 0.92,0 C 1.24,0 1.472,0.051 1.613,0.152 C 1.754,0.252 1.825,0.426 1.825,0.669 C 1.825,0.753 1.822,0.818 1.818,0.864 C 1.813,0.909 1.806,0.954 1.797,0.996 L -0.58,16.174 L 2.292,16.174 L 2.844,11.594 C 3.051,9.743 3.188,8.304 3.254,7.273 C 3.32,6.243 3.354,5.282 3.354,4.391 L 3.354,3.974 L 3.65,3.974 C 3.688,5.59 3.751,7.082 3.841,8.453 C 3.931,9.824 4.041,11.018 4.174,12.035 L 4.697,16.174 L 7.356,16.174 L 5.037,0.921 C 4.829,-0.433 4.506,-1.27 4.067,-1.591 C 3.629,-1.909 2.622,-2.068 1.047,-2.068 L 0,-2.068 L 0,0 z"
             id="path81"
             style="fill:#231f20;fill-opacity:1;fill-rule:nonzero;stroke:none" /></g></g></g></g></svg>